<?xml version="1.0" encoding="utf-8"?>
<!-- Generator: Adobe Illustrator 23.0.3, SVG Export Plug-In . SVG Version: 6.00 Build 0)  -->
<svg version="1.1" id="Layer_1" xmlns="http://www.w3.org/2000/svg" xmlns:xlink="http://www.w3.org/1999/xlink" x="0px" y="0px"
	 viewBox="0 0 1024 1024" style="enable-background:new 0 0 1024 1024;" xml:space="preserve">
<style type="text/css">
	.st0{opacity:0.83;}
	.st1{fill:#8B3EE5;}
	.st2{fill:url(#SVGID_1_);}
	.st3{fill:url(#SVGID_2_);}
	.st4{opacity:0.62;fill:#8B3EE5;}
	.st5{opacity:0.25;fill:#8B3EE5;}
	.st6{fill:#AA1F1F;}
</style>
<g class="st0">
	<g>
		<path class="st1" d="M765.1,710.8c-14.5-12.7-34.5-24-59.4-33.5l7,48.5c23.9,12.3,38.3,26.3,38.3,38.2c0,15.5-24.5,34.6-62.5,48.7
			C641.6,830,579,839.6,512,839.6s-129.6-9.6-176.4-26.9c-38-14.1-62.5-33.2-62.5-48.7c0-11.5,13.5-25,36-37l-1-45.6
			c-20.2,8.6-36.7,18.4-49.1,29.3c-22.7,19.9-27.5,39.9-27.5,53.2c0,13.2,4.8,33.2,27.5,53.2c15,13.2,35.9,24.8,62.1,34.5
			c51.3,19.1,119.1,29.6,190.9,29.6s139.6-10.5,190.9-29.6c26.2-9.7,47.2-21.4,62.1-34.5c22.7-19.9,27.5-39.9,27.5-53.2
			C792.5,750.7,787.8,730.7,765.1,710.8z"/>
	</g>
	<path class="st1" d="M512,646.7c-71.8,0-139.6,10.5-190.9,29.6c-19.3,7.2-35.7,15.3-49,24.4l19.2,37.5c10.8-8.1,26-16.1,44.2-22.9
		c46.8-17.4,109.5-27,176.4-27s129.6,9.6,176.4,27c16.3,6,30.1,13,40.5,20.2l21-36.1c-12.9-8.5-28.7-16.3-47.1-23.1
		C651.6,657.2,583.8,646.7,512,646.7z"/>
</g>
<radialGradient id="SVGID_1_" cx="512" cy="568.7891" r="265.6808" fx="458.4953" fy="457.321" gradientUnits="userSpaceOnUse">
	<stop  offset="5.656363e-02" style="stop-color:#FFCCCC"/>
	<stop  offset="0.2381" style="stop-color:#FF9B9D"/>
	<stop  offset="0.5054" style="stop-color:#FF595D"/>
	<stop  offset="0.7304" style="stop-color:#FF292E"/>
	<stop  offset="0.9014" style="stop-color:#FF0B12"/>
	<stop  offset="0.9982" style="stop-color:#FF0007"/>
</radialGradient>
<circle class="st2" cx="512" cy="568.8" r="265.7"/>
<radialGradient id="SVGID_2_" cx="1544" cy="512" r="328" fx="1477.9451" fy="374.3855" gradientUnits="userSpaceOnUse">
	<stop  offset="1.634018e-02" style="stop-color:#FFFFFF"/>
	<stop  offset="4.081516e-02" style="stop-color:#F2F2F2"/>
	<stop  offset="0.152" style="stop-color:#BABABA"/>
	<stop  offset="0.2666" style="stop-color:#888888"/>
	<stop  offset="0.3823" style="stop-color:#5E5E5E"/>
	<stop  offset="0.4992" style="stop-color:#3C3C3C"/>
	<stop  offset="0.6178" style="stop-color:#222222"/>
	<stop  offset="0.7388" style="stop-color:#0F0F0F"/>
	<stop  offset="0.8636" style="stop-color:#040404"/>
	<stop  offset="0.9982" style="stop-color:#000000"/>
</radialGradient>
<circle class="st3" cx="1544" cy="512" r="328"/>
<path class="st4" d="M841.1,499.6c-6.3-5.5-13.4-10.9-21.3-16c-0.7-0.4-1.3-0.8-2-1.3c-0.6-0.4-1.3-0.8-1.9-1.2
	c-0.8-0.5-1.6-1-2.4-1.4c-0.5-0.3-1.1-0.6-1.6-1c-1.3-0.8-2.7-1.6-4-2.3c-0.3-0.2-0.7-0.4-1-0.6c-1.2-0.7-2.4-1.3-3.7-2
	c-0.3-0.2-0.6-0.3-1-0.5c-12.5-6.7-26.5-12.9-41.9-18.6c-3.3-1.2-6.7-2.4-10.1-3.6c10.2,20.6,17.8,42.8,22.4,66l0.3,2
	c0,0,0.1,0,0.1,0.1c0,0,0,0,0,0c5.9,3,11.4,6.1,16.3,9.3c0.1,0,0.1,0.1,0.2,0.1c0.8,0.5,1.5,1,2.2,1.4c0.2,0.1,0.3,0.2,0.5,0.3
	c0.6,0.4,1.3,0.8,1.9,1.3c18.2,12.5,28.7,25.6,28.7,37.1c0,20.1-31.9,45-81.3,63.3c-60.9,22.6-142.4,35.1-229.5,35.1
	s-168.6-12.4-229.5-35.1c-49.4-18.3-81.3-43.2-81.3-63.3c0-10.6,8.8-22.4,24.3-34c0.6-0.4,1.2-0.9,1.8-1.3c0.3-0.2,0.5-0.4,0.8-0.5
	c0.9-0.6,1.7-1.2,2.6-1.8c0,0,0.1,0,0.1-0.1c0.9-0.6,1.8-1.2,2.7-1.8c0.2-0.1,0.4-0.3,0.6-0.4c0.8-0.5,1.7-1.1,2.5-1.6
	c0.1-0.1,0.3-0.2,0.4-0.3c2.1-1.3,4.3-2.6,6.5-3.8c0.1,0,0.1-0.1,0.2-0.1c1.1-0.6,2.3-1.3,3.4-1.9c0,0,0,0,0,0
	c1.2-0.6,2.4-1.3,3.7-1.9c4.5-24,12.3-46.9,22.8-68.1c-3.4,1.2-6.8,2.4-10.1,3.6c-12.9,4.8-24.7,9.9-35.6,15.3
	c-0.2,0.1-0.4,0.2-0.7,0.3c-1.2,0.6-2.3,1.2-3.4,1.8c-0.4,0.2-0.9,0.5-1.3,0.7c-0.9,0.5-1.7,0.9-2.6,1.4c-0.6,0.3-1.2,0.6-1.7,1
	c-0.7,0.4-1.4,0.8-2,1.1c-0.7,0.4-1.4,0.8-2.1,1.2c-0.5,0.3-1,0.6-1.5,0.9c-0.8,0.5-1.6,1-2.4,1.4c-0.2,0.1-0.5,0.3-0.7,0.4
	c-10.1,6.1-19,12.6-26.7,19.3c-29.6,25.9-35.8,51.9-35.8,69.2c0,17.2,6.2,43.2,35.8,69.2c19.5,17.1,46.7,32.2,80.8,44.9
	c66.7,24.8,154.9,38.4,248.3,38.4s181.6-13.7,248.3-38.4c34.1-12.7,61.3-27.8,80.8-44.9c29.6-25.9,35.8-51.9,35.8-69.2
	C876.9,551.6,870.7,525.6,841.1,499.6z"/>
<path class="st5" d="M790,321.6c-5.3-4.7-11.4-9.2-18.1-13.5c-0.6-0.4-1.1-0.7-1.7-1.1c-0.5-0.3-1.1-0.7-1.6-1
	c-0.7-0.4-1.3-0.8-2-1.2c-0.5-0.3-0.9-0.5-1.4-0.8c-1.1-0.7-2.3-1.3-3.4-2c-0.3-0.2-0.6-0.3-0.8-0.5c-1-0.6-2.1-1.1-3.1-1.7
	c-0.3-0.1-0.5-0.3-0.8-0.4c-10.6-5.7-22.5-10.9-35.5-15.8C665,262.5,590.3,251,511.2,251s-153.8,11.6-210.4,32.6
	c-10.9,4-20.9,8.4-30.1,13c-0.2,0.1-0.4,0.2-0.5,0.3c-1,0.5-2,1-2.9,1.5c-0.4,0.2-0.8,0.4-1.1,0.6c-0.7,0.4-1.5,0.8-2.2,1.2
	c-0.5,0.3-1,0.5-1.5,0.8c-0.6,0.3-1.2,0.6-1.7,1c-0.6,0.3-1.2,0.7-1.7,1c-0.4,0.2-0.9,0.5-1.3,0.7c-0.7,0.4-1.4,0.8-2,1.2
	c-0.2,0.1-0.4,0.3-0.6,0.4c-8.5,5.2-16.1,10.6-22.6,16.4c-25,22-30.3,44-30.3,58.6c0,14.6,5.3,36.6,30.3,58.6
	c16.5,14.5,39.6,27.3,68.5,38c56.5,21,131.3,32.6,210.4,32.6s153.8-11.6,210.4-32.6c28.9-10.7,52-23.5,68.5-38
	c25-22,30.3-44,30.3-58.6C820.3,365.6,815.1,343.6,790,321.6z M705.6,433.9C654,453,585,463.6,511.2,463.6S368.3,453,316.8,433.9
	c-41.8-15.5-68.9-36.6-68.9-53.7c0-8.9,7.4-19,20.6-28.8c0.5-0.4,0.9-0.7,1.4-1.1c0.2-0.2,0.5-0.3,0.7-0.5c0.6-0.4,1.2-0.9,1.8-1.3
	c0.1-0.1,0.2-0.2,0.3-0.2c0.7-0.5,1.5-1,2.2-1.5c0.3-0.2,0.5-0.3,0.8-0.5c0.5-0.3,1-0.7,1.6-1c0.3-0.2,0.6-0.4,0.9-0.6
	c0.5-0.3,1.1-0.7,1.7-1c0.3-0.2,0.5-0.3,0.8-0.5c0.8-0.5,1.6-0.9,2.4-1.4c0.3-0.2,0.6-0.3,0.9-0.5c0.6-0.3,1.1-0.6,1.7-0.9
	c0.4-0.2,0.7-0.4,1.1-0.6c8.8-4.7,18.8-9.2,29.8-13.3c51.6-19.2,120.6-29.7,194.4-29.7s142.8,10.5,194.4,29.7
	c9.9,3.7,19,7.7,27.1,11.9c0.3,0.2,0.7,0.3,1,0.5c0.5,0.3,1.1,0.6,1.6,0.9c0.3,0.2,0.6,0.3,0.9,0.5c0.5,0.3,1.1,0.6,1.6,0.9
	c0.3,0.2,0.6,0.3,0.9,0.5c0.6,0.3,1.1,0.6,1.7,0.9c0.2,0.1,0.5,0.3,0.7,0.4c0.6,0.4,1.2,0.7,1.8,1.1c0.2,0.1,0.4,0.2,0.5,0.3
	c2.3,1.4,4.6,2.9,6.7,4.3c15.4,10.6,24.3,21.7,24.3,31.4C774.5,397.2,747.4,418.3,705.6,433.9z"/>
<g>
	<g>
		<path class="st6" d="M214.5,232.4c1.3,4,1.4,7.8,0.5,11.5c-1,3.7-3,7-6,9.9c-3,2.9-7,5.2-12,7c-5.6,1.9-10.5,2.7-14.9,2.4
			c-4.4-0.4-8.3-1.4-11.7-3c1.6-4.4,2.4-6.6,4-11c3,1.2,6,1.9,9,2.1c3.1,0.2,6.2-0.3,9.4-1.4c2-0.7,3.6-1.6,4.9-2.7
			c1.3-1.1,2.1-2.4,2.6-3.9c0.4-1.4,0.4-3-0.2-4.7c-0.5-1.6-1.3-2.8-2.3-3.6c-1-0.8-2.5-1.4-4.4-1.7c-1.9-0.3-4.4-0.4-7.5-0.3
			c-5.2,0.2-9.7-0.2-13.2-1c-3.5-0.8-6.4-2.1-8.6-4c-2.2-1.9-3.9-4.5-5.1-7.6c-1.4-3.9-1.6-7.5-0.5-11.1c1.1-3.5,3.2-6.7,6.3-9.4
			c3.1-2.7,6.8-4.9,11.2-6.4c4.9-1.7,9.5-2.4,13.7-2.3c4.2,0.2,8.1,1.2,11.7,3c-1.8,4.2-2.6,6.3-4.4,10.5c-2.7-1.1-5.4-1.7-8.2-1.8
			c-2.7-0.1-5.4,0.4-7.9,1.2c-1.9,0.6-3.4,1.5-4.7,2.4c-1.2,1-2.1,2.1-2.5,3.2c-0.5,1.2-0.4,2.5,0.1,3.8c0.5,1.3,1.3,2.3,2.3,3
			c1.1,0.7,2.7,1.1,4.8,1.2c2.1,0.2,5,0.2,8.6,0.2c4.3-0.1,8.1,0.3,11.4,1.1c3.3,0.8,6.1,2.3,8.4,4.4
			C211.4,225.5,213.2,228.5,214.5,232.4z"/>
		<path class="st6" d="M240.2,189.7c4.2-1.2,7.9-1,11.1,0.4c3.2,1.5,5.8,4,8.1,7.7c2.2,3.6,4,8.2,5.4,13.6c1.3,5.1,1.8,9.9,1.5,14.3
			c-0.4,4.4-1.5,8.1-3.5,11.1c-2,3-4.9,5-8.6,6.1c-4.5,1.2-8.6,0.6-12.4-2.1c2.7,9.1,4,13.6,6.6,22.7c-5.2,2.2-7.7,3.3-12.8,5.5
			c-7.2-23.3-14.4-46.6-21.6-69.8c5.1-1.6,7.6-2.3,12.7-3.8c0.9,2.1,1.4,3.2,2.3,5.4c1.2-3.2,2.8-5.6,4.8-7.4
			C235.8,191.5,237.9,190.3,240.2,189.7z M238.8,201.8c-1.7,0.5-3,1.4-3.9,2.8c-1,1.4-1.7,3.1-2.2,5.2c2.4,8.4,3.7,12.5,6.1,20.9
			c1.4,1.2,2.7,2.1,4,2.5c1.3,0.4,2.6,0.4,4.1,0c2.4-0.7,4-2.4,4.7-5.2c0.7-2.8,0.3-6.9-1.2-12.5c-1.1-4.1-2.3-7.2-3.5-9.3
			c-1.2-2.1-2.5-3.5-3.8-4C241.7,201.5,240.3,201.4,238.8,201.8z"/>
		<path class="st6" d="M278.1,159c2.5,10.6,3.7,15.8,6.1,26.4c1.5-2.7,3.4-4.9,5.5-6.5c2.2-1.6,4.6-2.7,7.3-3.3
			c4.4-0.9,8-0.3,10.8,1.8c2.8,2.2,4.7,5.6,5.7,10.4c2.5,12.4,5,24.7,7.5,37.1c-5.5,1.1-8.3,1.7-13.8,2.9
			c-2.4-10.9-4.8-21.9-7.2-32.8c-0.7-3-1.5-5.1-2.4-6.1c-0.9-1.1-2.3-1.4-4.1-1c-1,0.2-1.9,0.7-2.8,1.4c-0.8,0.7-1.6,1.6-2.3,2.7
			s-1.4,2.4-2,3.9c2.7,11.6,5.4,23.2,8.1,34.8c-5.5,1.3-8.3,1.9-13.8,3.3c-5.8-23.3-11.6-46.6-17.4-69.9
			C269.4,162,272.3,161,278.1,159z"/>
		<path class="st6" d="M341.8,199.3c0.8,2.7,1.9,4.8,3.2,6.4c1.3,1.5,2.9,2.5,4.6,3.1c1.7,0.5,3.6,0.6,5.6,0.3
			c2.2-0.4,4.2-1.1,6.1-2.2c1.9-1.1,3.7-2.4,5.4-4c2.8,3,4.1,4.4,6.9,7.4c-1.9,2.4-4.3,4.4-7.3,6.2c-2.9,1.8-6.4,3-10.4,3.7
			c-5.3,0.9-10,0.5-14-1.2c-4-1.7-7.3-4.3-9.9-8c-2.6-3.7-4.4-8.2-5.4-13.4c-1-5-0.9-9.7,0.1-14.1c1.1-4.4,3.1-8.2,6.3-11.3
			c3.1-3.1,7.3-5.1,12.4-5.9c4.7-0.8,9-0.4,12.7,1.2c3.8,1.5,6.9,4.1,9.3,7.8c2.5,3.6,4.1,8.2,4.8,13.7c0.1,0.9,0.2,1.8,0.3,2.8
			c0.1,1,0.2,1.9,0.2,2.7C362.4,195.9,352,197.5,341.8,199.3z M347,176.5c-2.6,0.4-4.5,1.8-5.8,4c-1.2,2.2-1.7,5.5-1.2,9.8
			c7.1-1.2,10.6-1.8,17.7-3c-0.6-3.7-1.8-6.6-3.5-8.6C352.5,176.7,350.1,176,347,176.5z"/>
		<path class="st6" d="M386.7,214c-0.5-4.1-0.8-6.1-1.3-10.2c2.5-0.3,3.8-0.5,6.3-0.8c-1.3-10.3-2.6-20.6-3.9-30.8
			c-2.6,0.3-3.9,0.5-6.5,0.8c-0.5-4-0.8-6.1-1.3-10.1c7.1-0.9,10.6-1.4,17.7-2.2c1.6,4.5,2.4,6.7,4,11.2c1.3-4.6,3.2-8.1,5.7-10.6
			c2.5-2.4,5.8-3.9,9.8-4.2c1.7-0.2,3.2-0.2,4.5,0c1.3,0.2,2.6,0.4,3.8,0.8c-1.4,5.2-2,7.8-3.3,13c-0.9-0.2-1.8-0.3-2.7-0.3
			c-0.9,0-1.9,0-3,0.1c-3.2,0.3-5.9,2-8,5c-2.1,3-3.6,6.7-4.3,11c0.6,5.9,1,8.8,1.6,14.7c3.8-0.4,5.6-0.6,9.4-1
			c0.4,4.1,0.6,6.1,1,10.2C406.3,211.5,396.5,212.7,386.7,214z M415.6,180.5c-0.6-6-0.9-9-1.5-15c0.6-2.7,0.9-4,1.6-6.7
			c3.9-0.4,5.9-0.6,9.8-0.9c-0.4,8.7-0.5,13-0.8,21.7C421,179.9,419.2,180.1,415.6,180.5z"/>
		<path class="st6" d="M450.2,186.4c0.5,2.8,1.3,5,2.5,6.7c1.1,1.7,2.5,2.8,4.2,3.5c1.7,0.7,3.5,1,5.5,0.9c2.2-0.1,4.3-0.6,6.3-1.5
			c2-0.9,3.9-2,5.8-3.4c2.4,3.3,3.6,4.9,6,8.1c-2.2,2.1-4.8,3.9-7.9,5.4c-3.1,1.5-6.7,2.3-10.7,2.5c-5.4,0.3-9.9-0.6-13.8-2.7
			c-3.8-2.1-6.8-5.1-9-9.1c-2.2-4-3.5-8.6-3.9-13.9c-0.4-5.1,0.2-9.7,1.7-14c1.5-4.3,4-7.8,7.4-10.5c3.4-2.7,7.8-4.2,13-4.5
			c4.7-0.3,8.9,0.6,12.5,2.6c3.6,2,6.4,4.9,8.4,8.8c2,3.9,3.1,8.6,3.3,14.1c0,0.9,0,1.8,0,2.8c0,1-0.1,1.9-0.1,2.7
			C471,185.2,460.6,185.7,450.2,186.4z M457.9,164.3c-2.6,0.1-4.7,1.3-6.2,3.3c-1.5,2.1-2.3,5.3-2.3,9.6c7.1-0.5,10.7-0.6,17.9-1
			c-0.2-3.8-1-6.7-2.5-8.9C463.3,165.1,461,164.1,457.9,164.3z"/>
		<path class="st6" d="M567,151.3c-0.4,7.1-0.6,10.7-1,17.8c9,0.5,13.5,0.8,22.4,1.5c-0.4,4.6-0.5,6.8-0.9,11.4
			c-8.9-0.7-13.3-1-22.2-1.5c-0.6,10.7-0.9,16-1.4,26.7c-5.8-0.3-8.8-0.5-14.6-0.7c0.9-22.4,1.7-44.8,2.6-67.3
			c14.4,0.6,28.9,1.5,43.3,2.6c-1,4.5-1.5,6.7-2.5,11.2C582.5,152.2,577.3,151.9,567,151.3z"/>
		<path class="st6" d="M640.8,199.5c-0.3,1.9-0.2,3.4,0.2,4.3c0.4,0.9,1.1,1.7,2.1,2.3c-1.7,3.8-2.6,5.8-4.2,9.6
			c-2.7-0.7-5-1.6-6.7-2.9s-3.1-3-3.9-5.3c-2.1,2.1-4.6,3.6-7.5,4.4c-2.9,0.8-5.8,1.1-8.8,0.8c-4.8-0.5-8.5-2.4-11.1-5.7
			c-2.6-3.3-3.7-7.3-3.3-12c0.5-5.6,2.9-9.7,7.3-12.4c4.4-2.6,10.4-3.6,17.9-2.7c2.6,0.3,3.9,0.4,6.5,0.8c0.1-0.8,0.1-1.2,0.2-1.9
			c0.3-2.7-0.3-4.7-1.8-6.2c-1.5-1.5-3.8-2.4-7-2.7c-1.6-0.2-3.6-0.2-6.1,0.1c-2.5,0.2-5,0.6-7.6,1.3c-1-4.2-1.4-6.3-2.4-10.5
			c3.3-1,6.7-1.6,10.3-1.9c3.5-0.3,6.7-0.3,9.4,0c7.4,0.8,12.6,3.1,15.8,6.6c3.1,3.5,4.3,8.3,3.5,14.1
			C642.4,187.4,641.8,191.5,640.8,199.5z M617.9,202.3c1.5,0.2,3.2-0.1,4.9-0.9c1.8-0.8,3.2-2,4.3-3.7c0.4-3.3,0.6-5,1-8.3
			c-1.4-0.2-2.1-0.3-3.5-0.4c-4-0.5-7-0.1-9,1c-2,1.1-3.1,2.9-3.4,5.4c-0.2,2,0.2,3.6,1.2,4.8C614.4,201.3,615.9,202,617.9,202.3z"
			/>
		<path class="st6" d="M678.9,209.8c1.9,0.3,3.8,0.3,5.7-0.3c1.9-0.5,3.7-1.2,5.7-2.2c1.8,4.3,2.7,6.4,4.4,10.7
			c-2.4,1.5-5.2,2.6-8.4,3.4c-3.2,0.7-6.6,0.8-10.2,0.1c-5-0.9-9.1-2.7-12.4-5.5c-3.3-2.8-5.6-6.4-6.9-10.7
			c-1.4-4.3-1.7-9.1-0.9-14.4c0.8-5.3,2.5-9.9,5.2-13.7c2.7-3.8,6.1-6.6,10.4-8.4c4.2-1.8,9-2.2,14.3-1.3c3.7,0.7,7,1.8,9.7,3.4
			c2.7,1.6,5.1,3.7,7.1,6.3c-3.2,3.1-4.8,4.7-8,7.9c-1.4-1.5-3-2.8-4.7-3.8c-1.7-1-3.6-1.7-5.5-2c-3.3-0.6-6.1,0.2-8.5,2.3
			c-2.4,2.1-4.1,6-5,11.7c-0.6,3.7-0.6,6.8-0.1,9.1c0.6,2.3,1.6,4.1,3,5.2C675.2,208.7,676.9,209.5,678.9,209.8z"/>
		<path class="st6" d="M747.4,232c-2.1,0.8-4.6,1.3-7.3,1.6c-2.8,0.3-5.7,0-8.9-0.7c-6-1.4-10.1-4.1-12.3-8.1
			c-2.2-4-2.7-8.9-1.5-14.7c2-9.2,3-13.7,4.9-22.9c-4.1-0.9-6.1-1.3-10.2-2.1c0.8-4.1,1.3-6.2,2.1-10.4c4.1,0.8,6.2,1.3,10.3,2.2
			c0.9-4.4,1.4-6.6,2.3-10.9c6,0.5,9.1,0.8,15.1,1.5c-1.2,5.1-1.8,7.6-2.9,12.7c6.3,1.4,9.4,2.2,15.7,3.8c-1.6,4-2.4,6-3.9,9.9
			c-5.6-1.4-8.5-2.1-14.1-3.4c-2.1,9.1-3.2,13.7-5.3,22.8c-0.6,2.5-0.5,4.4,0.4,5.7c0.8,1.3,2.4,2.2,4.7,2.8
			c1.6,0.4,3.2,0.5,4.7,0.4c1.5-0.1,2.8-0.3,4.1-0.7C746.1,225.7,746.6,227.8,747.4,232z"/>
		<path class="st6" d="M791.9,192c5,1.4,8.9,3.8,11.7,7c2.8,3.2,4.5,7.1,5.1,11.6c0.6,4.5,0.1,9.3-1.6,14.6
			c-1.7,5.5-4.1,9.9-7.1,13.3c-3,3.4-6.5,5.6-10.4,6.7c-3.9,1.1-8.2,1-12.9-0.4c-4.7-1.3-8.3-3.5-11.1-6.5c-2.8-3-4.5-6.7-5.3-11.2
			c-0.7-4.4-0.4-9.5,1.1-15c1.4-5.3,3.5-9.7,6.4-13.2c2.9-3.5,6.4-5.9,10.5-7.1C782.4,190.5,787,190.6,791.9,192z M788.8,202.8
			c-2.9-0.8-5.4-0.2-7.5,1.9c-2.1,2.1-3.9,5.8-5.4,11.2c-1.5,5.5-1.9,9.7-1.3,12.5c0.7,2.8,2.4,4.7,5.2,5.5c2.8,0.8,5.3,0.2,7.3-1.9
			c2.1-2.1,3.9-5.8,5.6-11.4c1.6-5.3,2.1-9.4,1.4-12.3C793.5,205.5,791.7,203.7,788.8,202.8z"/>
		<path class="st6" d="M809.4,253.1c1.3-3.9,1.9-5.9,3.2-9.8c2.4,0.8,3.6,1.2,6,2c3.3-9.8,6.6-19.7,9.8-29.5
			c-2.5-0.8-3.7-1.2-6.2-2.1c1.3-3.9,1.9-5.8,3.2-9.7c6.9,2.2,10.3,3.4,17.1,5.8c-0.5,4.7-0.7,7.1-1.2,11.9c3.1-3.6,6.4-6,9.8-7.1
			c3.4-1.1,7-1,10.8,0.5c1.6,0.6,3,1.3,4.1,2c1.2,0.7,2.2,1.5,3.1,2.4c-3.5,4.1-5.2,6.2-8.7,10.3c-0.8-0.6-1.5-1.1-2.4-1.5
			c-0.8-0.4-1.7-0.8-2.8-1.2c-3.1-1.1-6.2-0.8-9.5,1c-3.2,1.8-6.1,4.5-8.7,8c-2,5.6-2.9,8.4-4.9,13.9c3.6,1.3,5.4,1.9,9,3.2
			c-1.4,3.9-2.1,5.8-3.5,9.7C828.4,259.4,818.9,256.1,809.4,253.1z M850.3,235.4c2.1-5.7,3.1-8.5,5.2-14.1c1.7-2.1,2.6-3.2,4.3-5.3
			c3.8,1.4,5.6,2.1,9.4,3.5c-4.1,7.7-6.1,11.5-10.2,19.2C855.5,237.3,853.7,236.7,850.3,235.4z"/>
	</g>
</g>
</svg>
